<?xml version="1.0" encoding="utf-8"?>
<!-- Generator: Adobe Illustrator 23.0.1, SVG Export Plug-In . SVG Version: 6.00 Build 0)  -->
<svg version="1.1" id="Capa_1" xmlns="http://www.w3.org/2000/svg" xmlns:xlink="http://www.w3.org/1999/xlink" x="0px" y="0px"
	 viewBox="0 0 131.5 89" style="enable-background:new 0 0 131.5 89;" xml:space="preserve">
<style type="text/css">
	.st0{fill:#FFFFFF;}
	.st1{fill:#EB5C2F;}
	.st2{fill:#FCBF16;}
	.st3{fill:#4EAE4F;}
	.st4{fill:#478ECC;}
</style>
<g>
	<rect x="43.9" y="59.9" class="st0" width="7.6" height="18.7"/>
	<circle class="st0" cx="47.6" cy="55.7" r="3.3"/>
	<path class="st0" d="M121.3,70c0-2.5-0.4-4.5-1.3-6s-2.1-2.7-3.7-3.5c-1.6-0.9-3.9-1.2-6.7-1.2c-3.5,0-6.3,0.9-8.2,2.7
		c-2,1.8-3,4.2-3,7.1c0,2,0.5,3.9,1.5,5.3s2.2,2.7,3.7,3.3c1.5,0.6,3.6,1.1,6.2,1.1c3,0,5.3-0.4,7-1.2c1.6-0.9,3-2.1,4.2-4.1
		l-7.5-0.6c-0.4,0.5-1,1-1.3,1.2c-0.6,0.3-1.4,0.5-2.1,0.5c-1.2,0-2.1-0.4-2.9-1.2c-0.5-0.5-0.9-1.4-1-2.6h15.3V70H121.3z M106,67.4
		c0.1-1.1,0.4-1.9,0.9-2.6c0.7-0.9,1.7-1.4,2.9-1.4c1.1,0,1.9,0.3,2.6,0.9c0.6,0.6,1.1,1.6,1.2,3L106,67.4L106,67.4z"/>
	<path class="st0" d="M97.3,77.5V59.9h-7.2v2.8c-0.9-1.2-1.8-1.9-2.8-2.5c-1-0.5-2.2-0.7-3.9-0.7c-2.5,0-4.4,0.7-5.9,2.2
		s-2.2,3.7-2.2,6.6c0,2.6,0.5,4.6,1.7,6.1c1.6,2.1,3.7,3.3,6.4,3.3c1.4,0,2.7-0.3,3.9-0.9c0.7-0.4,1.5-1,2.2-1.8v3
		c0,1.4-0.3,2.4-0.9,2.9c-0.5,0.5-1.4,0.9-2.5,0.9c-0.9,0-1.6-0.2-2.1-0.5c-0.4-0.2-0.6-0.6-0.9-1.3l-7.4-0.7c0,0.4,0,0.7,0,1
		c0,1.9,0.7,3.4,2.2,4.5c1.5,1.2,4.3,1.7,8.2,1.7c1.7,0,3.3-0.1,4.6-0.4c1.4-0.3,2.5-0.7,3.3-1.4c0.9-0.6,1.6-1.5,2.1-2.6
		S97,80,97,78.8L97.3,77.5z M88.7,71.9c-0.6,0.6-1.4,1-2.4,1s-1.8-0.3-2.5-1c-0.6-0.6-1-1.7-1-3c0-1.5,0.3-2.7,0.9-3.3
		c0.5-0.6,1.4-1,2.4-1s1.8,0.3,2.5,1.1c0.6,0.7,1,1.7,1,3.1C89.7,70.3,89.4,71.2,88.7,71.9z"/>
	<path class="st0" d="M27.3,59.9h7.2V63c0.6-1.3,1.4-2.2,2.1-2.8c0.7-0.5,1.6-0.7,2.7-0.7c1.2,0,2.4,0.3,3.7,1l-2.4,5.1
		c-0.9-0.3-1.6-0.5-2.1-0.5c-1,0-1.8,0.4-2.4,1.2c-0.7,1.1-1.2,3.1-1.2,6.1v6.3h-7.7L27.3,59.9L27.3,59.9z"/>
	<path class="st0" d="M25,67.2c-1-1.1-2.4-1.8-4.4-2.4c1.3-0.4,2.2-1,3-1.7c1-1.1,1.5-2.4,1.5-4c0-1.8-0.7-3.3-2.1-4.6
		s-3.4-1.8-6.1-1.8H1v25.8h14.7c0.6,0,1.9-0.1,3.9-0.3c1.4-0.2,2.5-0.4,3.2-0.9c1.2-0.6,2-1.5,2.7-2.6s1-2.2,1-3.6
		C26.4,69.6,25.9,68.2,25,67.2z M9.6,58h3.7c1.3,0,2.1,0.2,2.7,0.6s0.7,1,0.7,1.7c0,0.9-0.2,1.4-0.7,1.8c-0.5,0.4-1.4,0.6-2.8,0.6
		H9.5V58H9.6z M16.9,72.3c-0.6,0.4-1.6,0.7-3.1,0.7H9.6v-5.2h4.3c1.5,0,2.6,0.2,3.1,0.7c0.6,0.4,0.9,1.1,0.9,1.8
		C17.9,71.1,17.6,71.8,16.9,72.3z"/>
	<path class="st0" d="M66.7,52.6v9c-0.7-0.7-1.6-1.3-2.6-1.7s-2-0.5-3.2-0.5c-2.5,0-4.5,0.9-6,2.5c-1.6,1.6-2.4,4.1-2.4,7.1
		c0,2.8,0.7,5.1,2.1,7.1C56,78,58.1,79,60.8,79c1.4,0,2.6-0.3,3.6-0.9c0.9-0.4,1.7-1.2,2.8-2.4v2.8h7.2V52.6H66.7z M65.7,72.5
		c-0.6,0.7-1.5,1.1-2.5,1.1s-1.7-0.3-2.4-1.1c-0.5-0.6-0.9-1.8-0.9-3.3c0-1.6,0.3-2.8,0.9-3.5c0.6-0.6,1.4-1.1,2.2-1.1
		c1,0,1.8,0.3,2.5,1.1c0.6,0.7,1,1.8,1,3.3C66.7,70.7,66.4,71.9,65.7,72.5z"/>
	<path class="st1" d="M90.4,12.6c-0.7-1.8-1.5-3.3-2.4-4.7l5.7,0.6L90.4,12.6z M84.8,7.6c0.6,0.7,1.2,1.7,1.7,2.8l-2.6,1.5l4.5,2.4
		L82.3,31l-2.5-0.7L77,25.4l2.4-3.4l-4.5-1.8L74.3,27L66,21.8l-1.5,1.9l-1.1-2.5l-3,0.1l1-3.7l-3.5,1.1l-1.5-3.4h-7.7l7.1-2.5
		l-1.1-4.5l1.8-1.1L60.1,8l-0.6,1.8l12-3.6L84.8,7.6z"/>
	<g>
		<polygon class="st2" points="48.5,15.2 56.2,15.2 57.7,18.5 58.8,21.2 60.2,21.2 63.2,21.1 64.2,23.5 58.2,31.2 64.4,31.7 
			57.7,42.6 54,42.9 52.4,33.6 54.7,30.6 51.3,28.7 50.5,25 45.9,25.6 42.4,23.5 41.2,24.4 39.1,20.8 38.1,19.2 40.2,18 41.2,19.7 
			42.4,17.2 		"/>
	</g>
	<g>
		<polygon class="st3" points="61.9,26.6 64.2,23.5 65.7,21.6 74.1,26.9 74.8,20.1 79.3,21.9 77,25.2 79.1,31 70.5,37.7 68.4,32 
			64.4,31.8 58.2,31.2 		"/>
	</g>
	<g>
		<path class="st0" d="M31.7,20.4h2.4c0.4,7.8,4.3,17.3,5.6,20.3c1.8,4.3,10.6,2.4,14.4,2.2v4.7l6-5.3c9.4-0.5,33.9-4.9,31.1-18.5
			c-0.7-3.7-1.7-7-2.8-9.6c-0.5-1.4-1.2-2.7-1.8-3.9c-0.5-1.1-1.2-1.9-1.7-2.8c-1.9-2.6-4.1-4-6-4.2C75.7,3,62.6,3.9,51,6.4
			l-8.1-0.6C57.3,1.3,75,0.6,79.4,1.2c2.7,0.3,5.9,2.2,8.7,6.7c0.9,1.3,1.6,2.9,2.4,4.7c1.2,2.9,2.2,6.4,3.1,10.6
			C96.7,38.8,71.3,44.5,61,45.1l-9.3,7.5v-7.1c-4.3,0.2-11.8,1.8-13.8-3C36.4,39.2,32,29.1,31.7,20.4z"/>
	</g>
	<g>
		<polygon class="st4" points="31.7,20.4 34,20.4 40.2,25.7 39.7,28.1 44.1,33.4 46.6,42.5 48.9,43.3 48.2,41.7 47.6,39.7 
			52.4,33.6 54.7,30.6 51.3,28.7 45.9,25.6 42.4,23.5 41.2,24.4 39.3,22.9 39.1,20.8 38.6,20.5 37.1,21.6 36.9,19.9 38.1,19.2 
			40.2,18 41.2,19.7 42.4,17.2 48.5,15.2 55.5,12.7 54.4,8.2 54,6.7 50.9,6.4 42.7,5.8 34.4,5.1 29.5,7.8 33.3,8.8 30.5,15.1 		"/>
	</g>
	<g>
		<path class="st0" d="M124.9,52.9c1.9,0,3.5,1.4,3.5,3.4c0,2.1-1.7,3.5-3.5,3.5s-3.5-1.4-3.5-3.5C121.4,54.3,123.1,52.9,124.9,52.9
			z M124.9,59.1c1.5,0,2.7-1.2,2.7-2.8s-1.2-2.8-2.7-2.8s-2.7,1.2-2.7,2.8C122.3,58,123.5,59.1,124.9,59.1z M123.5,54.4h1.5
			c1,0,1.5,0.3,1.5,1.2c0,0.7-0.4,1-1.1,1.1l1.1,1.7h-0.9l-1-1.7h-0.4v1.7h-0.7V54.4z M124.3,56h0.6c0.4,0,0.7-0.1,0.7-0.5
			s-0.4-0.5-0.9-0.5h-0.5v1H124.3z"/>
	</g>
</g>
</svg>
